<svg xmlns="http://www.w3.org/2000/svg" viewBox="0 0 200 200">
  <!-- Circle background -->
  <circle cx="100" cy="100" r="95" fill="white" stroke="#001a4d" stroke-width="2"/>
  
  <!-- Eagle wings - left side -->
  <path d="M 70 100 Q 65 85 60 75 Q 58 70 55 75 Q 60 85 65 95" fill="#dc143c" stroke="#001a4d" stroke-width="1.5"/>
  <path d="M 65 95 Q 60 90 55 80 Q 53 75 50 82 Q 55 92 60 100" fill="#dc143c" stroke="#001a4d" stroke-width="1.5"/>
  <path d="M 60 100 Q 55 95 50 85 Q 48 80 45 88 Q 50 98 55 105" fill="#dc143c" stroke="#001a4d" stroke-width="1.5"/>
  
  <!-- Eagle body -->
  <ellipse cx="100" cy="95" rx="15" ry="20" fill="#dc143c" stroke="#001a4d" stroke-width="1.5"/>
  <path d="M 95 85 L 100 75 L 105 85" fill="#dc143c" stroke="#001a4d" stroke-width="1.5"/>
  
  <!-- Eagle wings - right side -->
  <path d="M 130 100 Q 135 85 140 75 Q 142 70 145 75 Q 140 85 135 95" fill="#dc143c" stroke="#001a4d" stroke-width="1.5"/>
  <path d="M 135 95 Q 140 90 145 80 Q 147 75 150 82 Q 145 92 140 100" fill="#dc143c" stroke="#001a4d" stroke-width="1.5"/>
  <path d="M 140 100 Q 145 95 150 85 Q 152 80 155 88 Q 150 98 145 105" fill="#dc143c" stroke="#001a4d" stroke-width="1.5"/>
  
  <!-- Text "HOVÅS" -->
  <text x="100" y="135" font-family="Arial, sans-serif" font-size="18" font-weight="bold" fill="#001a4d" text-anchor="middle" letter-spacing="2">HOVÅS</text>
  
  <!-- Text "HC" -->
  <text x="100" y="160" font-family="Arial, sans-serif" font-size="16" font-weight="bold" fill="#001a4d" text-anchor="middle">HC</text>
</svg>